<?xml version="1.0" encoding="UTF-8"?>
<svg width="100px" height="55px" viewBox="0 0 100 55" version="1.1" xmlns="http://www.w3.org/2000/svg" xmlns:xlink="http://www.w3.org/1999/xlink">
    <!-- Generator: sketchtool 60.1 (101010) - https://sketch.com -->
    <title>E8FF5141-B49B-413B-9413-A13ED8089A13</title>
    <desc>Created with sketchtool.</desc>
    <g id="Page-1" stroke="none" stroke-width="1" fill="none" fill-rule="evenodd">
        <g id="Paywalls/video-free" transform="translate(-462.000000, -290.000000)">
            <g id="paywall" transform="translate(100.000000, 159.000000)">
                <g id="Bitmap">
                    <g id="Group" transform="translate(60.000000, 131.000000)">
                        <g id="atom/logos/VideoPass/VideoPass_white_logo-atom/logos/MotoGP/motogp-white-logo" transform="translate(302.000000, 0.000000)">
                            <g id="logos/motogp_white_logo">
                                <polygon id="Fill-1" fill="#FEFEFE" points="97.112147 26.1379212 96.1604853 26.1379212 95.6302646 28.6384987 95.2547718 28.6384987 95.784565 26.1379212 94.8356816 26.1379212 94.9032147 25.8215972 97.1830995 25.8215972"></polygon>
                                <polygon id="Fill-2" fill="#FEFEFE" points="99.4980002 25.8215972 98.1553703 28.2434428 98.1481872 28.2434428 97.7857469 25.8215972 97.2839539 25.8215972 96.7136133 28.6384987 97.059635 28.6384987 97.5347478 26.171741 97.5419309 26.171741 97.8957515 28.6384987 98.2403365 28.6384987 99.625039 26.171741 99.6344797 26.171741 99.0797367 28.6384987 99.4251427 28.6384987 99.9999984 25.8215972"></polygon>
                                <g id="Group-16">
                                    <g id="Group-5">
                                        <polygon id="Clip-4" points="0 0.0454304779 35.4546156 0.0454304779 35.4546156 23.4105111 0 23.4105111"></polygon>
                                        <path d="M9.77448274,4.81065388 C11.1812861,2.17899024 14.4476973,0.045409827 17.0726869,0.045409827 L35.4546151,0.045409827 L23.1335547,23.4105108 L-4.118277e-05,23.4105108 L9.77448274,4.81065388 Z" id="Fill-3" fill="#FEFEFE"></path>
                                    </g>
                                    <path d="M47.3461205,11.7510679 C48.3394489,9.8925483 50.6467135,8.38611494 52.4995263,8.38611494 L65.074067,8.38611494 L59.005992,20.0487382 C58.013899,21.9074643 55.7062226,23.4141042 53.8527921,23.4141042 L41.2796927,23.4141042 L47.3461205,11.7510679 Z" id="Fill-6" fill="#FEFEFE"></path>
                                    <path d="M68.4223266,1.87596908 C68.9486424,0.891160168 70.170741,0.093442234 71.1521264,0.093442234 L77.7316914,0.093442234 L74.2078878,6.69118699 C73.6805425,7.6757894 72.4588557,8.47392033 71.4766466,8.47392033 L64.8974935,8.47392033 L68.4223266,1.87596908 Z" id="Fill-8" fill="#FEFEFE"></path>
                                    <polygon id="Fill-10" fill="#FEFEFE" points="23.1335361 23.4100784 41.3095521 23.4100784 31.5957719 41.5905304 13.4209914 41.5905304"></polygon>
                                    <path d="M31.5957092,41.588609 L44.3388939,41.588609 L38.532741,52.4553724 C37.8029823,53.8215907 36.1054285,54.9294748 34.7426906,54.9294748 L24.4671775,54.9294748 L31.5957092,41.588609 Z" id="Fill-12" fill="#FEFEFE"></path>
                                    <path d="M85.8367289,35.0182679 L84.4336318,37.6643868 C84.0514557,38.3867314 83.1561423,38.9719586 82.4364733,38.9719586 L80.6956776,38.9719586 L84.4389856,31.9093777 L85.5698645,29.7729061 C87.1714625,26.6284975 89.1364984,25.9470403 91.4264664,25.9470403 C94.0108912,25.9470403 94.3411771,27.6643124 93.2166815,29.7826117 L93.1357573,29.9317063 L92.1545778,31.7823788 L92.0925977,31.9058671 C91.1614553,33.6615486 88.6944014,35.0847616 86.5811074,35.0847616 C86.3152727,35.0847616 86.065911,35.0616334 85.8367289,35.0182679 L85.8367289,35.0182679 Z M88.7401161,29.553188 L88.5968,29.8117287 L87.2933654,32.2719955 L87.8093855,32.2719955 C88.386562,32.2719955 89.1014949,31.8042681 89.4076888,31.2262686 L90.2984721,29.553188 C90.5272424,29.1207725 90.3641586,28.7709578 89.9337987,28.7709578 C89.5030269,28.7709578 88.9684745,29.1207725 88.7401161,29.553188 L88.7401161,29.553188 Z M61.9849055,29.173224 L58.3258164,36.0555288 L58.2994595,36.1067414 C57.3788187,37.8436312 54.9541831,39.2513566 52.8841312,39.2513566 C50.8153148,39.2513566 49.8833487,37.8456963 50.8009008,36.1112844 L54.5176458,29.118914 C55.4399339,27.3836761 57.8633339,25.9778092 59.9317385,25.9778092 C62.0022023,25.9778092 62.9335506,27.3849151 62.0131157,29.1215985 L61.9849055,29.173224 Z M54.1356752,35.6648264 C53.9064931,36.096829 54.0704005,36.4470567 54.4999368,36.4470567 C54.9309145,36.4470567 55.4660846,36.096829 55.6952667,35.6648264 L58.9384098,29.568882 C59.1665623,29.1370859 59.0032727,28.7870647 58.5729127,28.7870647 C58.141935,28.7870647 57.6069708,29.1370859 57.3775828,29.568882 L54.1356752,35.6648264 Z M76.1507483,29.173224 L72.4916594,36.0555288 L72.4655083,36.1067414 C71.5442498,37.8436312 69.1198203,39.2513566 67.0495625,39.2513566 C64.9819817,39.2513566 64.0487802,37.8456963 64.96695,36.1112844 L68.6836948,29.118914 C69.6057769,27.3836761 72.0291769,25.9778092 74.0975814,25.9778092 C76.1684569,25.9778092 77.0998052,27.3849151 76.1789585,29.1215985 L76.1507483,29.173224 Z M68.1709699,35.6648264 C67.9424055,36.096829 68.106107,36.4470567 68.5370847,36.4470567 C68.966621,36.4470567 69.5015851,36.096829 69.7315909,35.6648264 L72.9739103,29.568882 C73.2030924,29.1370859 73.0395968,28.7870647 72.6084132,28.7870647 C72.1776414,28.7870647 71.6426773,29.1370859 71.413907,29.568882 L68.1709699,35.6648264 Z M84.8112805,29.1426614 L83.7147892,31.2109871 L80.7471589,31.2109871 L81.6334121,29.5383195 C81.8628001,29.106317 81.6990986,28.7558828 81.2681209,28.7558828 C80.837761,28.7558828 80.302385,29.106317 80.0740265,29.5383195 L77.0909527,35.1638516 L76.8257356,35.6648258 C76.5967594,36.0968283 76.7600491,36.447056 77.1908209,36.447056 C77.620769,36.447056 78.1551154,36.1668326 78.6171861,35.2214657 L79.0203654,34.4596792 L78.2706331,34.4596792 L79.465963,32.2114901 L83.1839433,32.2114901 L81.146014,36.0555279 L81.1184216,36.1067404 C80.1990162,37.8436302 77.7743807,39.2513554 75.7043288,39.2513554 C73.6363361,39.2513554 72.7027227,37.8456952 73.6204807,36.1112835 L74.1224987,35.1638516 L77.3448444,29.0881448 C78.2650734,27.3535266 80.6888853,25.9470403 82.7577017,25.9470403 C84.8277536,25.9470403 85.7593078,27.3545591 84.8388729,29.0912423 L84.8112805,29.1426614 Z M48.4590433,29.6944352 L48.4050938,29.816891 L46.9608141,32.5414807 L44.2536646,37.6441493 C44.0253062,38.0744999 43.6167731,38.4569419 43.1715873,38.6977234 C42.8635402,38.8643707 42.5369608,38.9632852 42.2392094,38.9632852 L40.4831761,38.9632852 L43.8889912,32.5398287 L45.3987516,29.6925767 C45.4088414,29.6568518 45.4290209,29.6196814 45.4494064,29.582098 C45.5982821,29.1994495 45.4253145,28.9051839 45.0299599,28.9051839 C44.5948639,28.9051839 44.0563992,29.2574766 43.8245402,29.6925767 L42.3153975,32.5398287 L39.6094836,37.6441493 C39.2229833,38.3724825 38.3206688,38.9632852 37.5946165,38.9632852 L35.8383773,38.9632852 L40.753541,29.6925767 C41.8012306,27.5261624 43.0451562,26.0469874 46.5971702,26.0469874 L51.2327029,26.0469874 C53.006033,26.0469874 54.4801702,27.0846608 53.1044598,29.6944352 L48.890021,37.6441493 C48.5035207,38.3724825 47.6018239,38.9632852 46.8753598,38.9632852 L45.1187087,38.9632852 L48.5237002,32.5398287 L50.0330488,29.6944352 C50.2647018,29.2585091 50.099353,28.9051839 49.664257,28.9051839 C49.2303966,28.9051839 48.6906963,29.2585091 48.4590433,29.6944352 L48.4590433,29.6944352 Z M66.1046236,29.2095684 L62.6156193,35.7897604 C62.3874668,36.2219694 62.6738929,36.5317227 63.1030174,36.5717841 C63.4186833,36.6009009 63.7477337,36.5666216 64.1785054,36.3950183 L62.7684074,39.0440282 C62.2820389,39.1776351 62.0131154,39.2513564 61.5413668,39.2513564 C59.4721385,39.2513564 58.5084616,37.8525106 59.4258078,36.1176858 L65.2916757,25.057429 C65.6736459,24.3350844 66.5689593,23.7494442 67.2886283,23.7494442 L68.9964777,23.7494442 L67.6185022,26.3540562 L69.3897732,26.3540562 L67.8767182,29.2099814 L66.1046236,29.2095684 Z" id="Fill-14" fill="#FEFEFE"></path>
                                </g>
                            </g>
                        </g>
                    </g>
                </g>
            </g>
        </g>
    </g>
</svg>